# xmcd
# 
# Track frame offsets:
#     150
#     43917
#     93147
#     140052
#     188582
#     217545
# 
# Disc length: 3291
# 
# Revision: 1
# Processed by: cddbd v1.5.2PL0 Copyright (c) Steve Scherf et al.
# Submitted via: BonkEnc v1.0.15
# 
DISCID=490cd906
DTITLE=Toshiko Akiyoshi - Tribute to Duke Ellington
DYEAR=1999
DGENRE=Jazz
TTITLE0=Celebration Of Duke's Birth
TTITLE1=Eulogy
TTITLE2=Duke For The Ages
TTITLE3=Prelude To A Kiss
TTITLE4=Day Dream
TTITLE5=I Let A Song Out Of My Heart
EXTD=YEAR: 1999
EXTT0=
EXTT1=
EXTT2=
EXTT3=
EXTT4=
EXTT5=
PLAYORDER=
